<?xml version="1.0" standalone="no"?>
<!DOCTYPE svg PUBLIC "-//W3C//DTD SVG 20010904//EN"
 "http://www.w3.org/TR/2001/REC-SVG-20010904/DTD/svg10.dtd">
<svg version="1.0" xmlns="http://www.w3.org/2000/svg"
 width="558.000000pt" height="167.000000pt" viewBox="0 0 558.000000 167.000000"
 preserveAspectRatio="xMidYMid meet">

<g transform="translate(0.000000,167.000000) scale(0.100000,-0.100000)"
fill="#000000" stroke="none">
<path d="M2900 1235 l0 -115 248 2 247 3 3 113 3 112 -251 0 -250 0 0 -115z"/>
<path d="M4560 1180 l0 -60 245 0 245 0 0 60 0 60 -245 0 -245 0 0 -60z"/>
<path d="M390 995 l0 -135 65 0 c58 0 65 2 65 20 0 17 -7 20 -45 20 l-45 0 0
115 c0 108 -1 115 -20 115 -19 0 -20 -7 -20 -135z"/>
<path d="M590 996 l0 -136 25 0 26 0 -3 133 c-3 128 -4 132 -25 135 -23 3 -23
3 -23 -132z"/>
<path d="M725 1105 c-14 -13 -25 -33 -25 -43 0 -30 36 -68 80 -86 45 -18 59
-39 40 -61 -17 -20 -59 -19 -82 2 -17 15 -20 15 -34 1 -14 -14 -13 -17 12 -37
61 -48 154 -14 154 56 0 38 -17 56 -76 82 -37 17 -45 25 -42 43 4 29 52 37 78
13 17 -16 19 -15 29 4 26 49 -89 72 -134 26z"/>
<path d="M900 1110 c0 -16 7 -20 35 -20 l35 0 0 -115 0 -115 25 0 25 0 0 115
0 115 35 0 c28 0 35 4 35 20 0 19 -7 20 -95 20 -88 0 -95 -1 -95 -20z"/>
<path d="M1140 995 l0 -135 85 0 c78 0 85 2 85 20 0 18 -7 20 -60 20 l-60 0 0
39 0 40 52 3 c41 2 54 7 56 21 3 14 -5 17 -52 17 l-56 0 0 35 0 35 55 0 c48 0
55 2 55 20 0 18 -7 20 -80 20 l-80 0 0 -135z"/>
<path d="M1360 995 c0 -128 1 -135 20 -135 18 0 20 8 22 98 l3 97 70 -97 c53
-75 75 -98 92 -98 23 0 23 1 23 135 l0 135 -25 0 c-24 0 -24 -2 -27 -92 l-3
-93 -65 92 c-49 70 -71 93 -87 93 -23 0 -23 -2 -23 -135z"/>
<path d="M2423 1011 c-49 -23 -63 -45 -63 -101 0 -54 29 -83 106 -106 68 -20
89 -36 81 -58 -9 -23 -84 -21 -130 4 -20 11 -38 20 -40 20 -2 0 -9 -19 -16
-42 -12 -38 -11 -43 5 -55 31 -23 96 -35 155 -30 98 9 139 45 139 122 0 51
-34 83 -115 109 -54 18 -70 27 -70 42 0 27 50 31 84 6 26 -19 26 -19 65 5 37
24 38 25 19 45 -48 55 -146 72 -220 39z"/>
<path d="M2687 1024 c-4 -4 -7 -25 -7 -46 l0 -38 55 0 55 0 0 -150 0 -150 50
0 49 0 3 148 3 147 58 3 58 3 -3 42 -3 42 -156 3 c-85 1 -158 -1 -162 -4z"/>
<path d="M3060 835 l0 -195 50 0 50 0 0 195 0 195 -50 0 -50 0 0 -195z"/>
<path d="M3220 985 l0 -45 55 0 55 0 0 -150 0 -150 50 0 50 0 0 150 0 150 55
0 55 0 0 45 0 45 -160 0 -160 0 0 -45z"/>
<path d="M3680 1018 c-89 -25 -136 -100 -128 -208 5 -67 24 -101 77 -137 64
-44 187 -42 241 3 38 33 38 44 -6 72 l-35 23 -26 -21 c-50 -39 -115 -22 -140
37 -43 103 57 198 140 133 l25 -20 36 21 c42 24 44 38 14 66 -42 38 -126 52
-198 31z"/>
<path d="M3950 836 l0 -196 50 0 50 0 0 75 0 75 70 0 69 0 3 -72 3 -73 50 0
50 0 0 190 0 190 -50 0 -50 0 -3 -77 -3 -78 -69 0 -69 0 -3 78 -3 77 -47 3
-48 3 0 -195z"/>
<path d="M4357 1023 c-4 -3 -7 -91 -7 -195 l0 -188 150 0 150 0 0 45 0 45
-101 0 -100 0 3 33 c3 32 4 32 61 35 l57 3 0 34 0 34 -57 3 c-57 3 -58 3 -61
36 l-3 32 100 0 101 0 0 45 0 45 -143 0 c-79 0 -147 -3 -150 -7z"/>
<path d="M4700 836 l0 -196 50 0 50 0 0 55 0 55 38 0 c35 0 39 -3 66 -55 l28
-55 59 0 c33 0 59 2 59 5 0 3 -17 33 -38 66 l-39 61 27 27 c38 37 48 99 23
148 -29 60 -65 74 -203 80 l-120 6 0 -197z m224 88 c9 -8 16 -24 16 -34 0 -34
-28 -50 -86 -50 l-54 0 0 50 0 50 54 0 c36 0 60 -5 70 -16z"/>
<path d="M793 749 c-17 -5 -43 -23 -57 -39 -49 -59 -43 -140 15 -196 26 -25
38 -29 89 -29 51 0 63 4 89 29 80 77 54 208 -47 236 -42 11 -46 11 -89 -1z
m82 -43 c40 -17 55 -42 55 -90 0 -53 -37 -91 -90 -91 -53 0 -90 38 -90 91 0
47 15 73 53 89 40 18 32 17 72 1z"/>
<path d="M1030 615 c0 -128 1 -135 20 -135 19 0 20 7 20 95 0 52 3 95 8 94 4
0 37 -41 73 -92 44 -62 72 -92 85 -92 18 0 19 9 22 133 l3 132 -26 0 c-25 0
-25 0 -25 -92 l0 -93 -67 93 c-51 70 -72 92 -90 92 -23 0 -23 -1 -23 -135z"/>
<path d="M2900 465 l0 -85 248 2 247 3 0 80 0 80 -247 3 -248 2 0 -85z"/>
<path d="M4560 500 l0 -40 245 0 245 0 0 40 0 40 -245 0 -245 0 0 -40z"/>
</g>
</svg>
