<?xml version="1.0" encoding="UTF-8"?>
<svg width="160px" height="30px" viewBox="0 0 160 30" version="1.1" xmlns="http://www.w3.org/2000/svg" xmlns:xlink="http://www.w3.org/1999/xlink">
    <!-- Generator: Sketch 52.2 (67145) - http://www.bohemiancoding.com/sketch -->
    <title>Badges/pocketcasts_small_light</title>
    <desc>Created with Sketch.</desc>
    <defs>
        <polygon id="path-1" points="0 0.7968 9.0617 0.7968 9.0617 14.7998 0 14.7998"></polygon>
        <polygon id="path-3" points="0.0795 0.377 8.6005 0.377 8.6005 14.7999 0.0795 14.7999"></polygon>
    </defs>
    <g id="Badges/pocketcasts_small_light" stroke="none" stroke-width="1" fill="none" fill-rule="evenodd">
        <rect id="Rectangle-5" stroke="#B8C3C9" stroke-width="0.5" fill="#FFFFFF" x="0.25" y="0.25" width="159.5" height="29.5" rx="4"></rect>
        <g id="Pocket-Casts-Roundel---Red" transform="translate(14.000000, 4.000000)">
            <g id="Group">
                <path d="M22,11 C22,17.0752593 17.0752593,22 11,22 C4.92474074,22 0,17.0752593 0,11 C0,4.92474074 4.92474074,0 11,0 C17.0752593,0 22,4.92474074 22,11" id="Fill-23" fill="#F43E37"></path>
                <g id="Glyph" transform="translate(2.444444, 2.444444)" fill="#FFFFFF">
                    <path d="M0,8.65740741 C0,3.87605332 3.87605332,0 8.65740741,0 C13.4387615,0 17.3148148,3.87605332 17.3148148,8.65740741 L15.150463,8.65740741 C15.150463,5.07139184 12.243423,2.16435185 8.65740741,2.16435185 C5.07139184,2.16435185 2.16435185,5.07139184 2.16435185,8.65740741 C2.16435185,12.243423 5.07139184,15.150463 8.65740741,15.150463 L8.65740741,17.3148148 C3.87605332,17.3148148 0,13.4387615 0,8.65740741 Z M8.65740741,13.8518519 C5.78859496,13.8518519 3.46296296,11.5262199 3.46296296,8.65740741 C3.46296296,5.78859496 5.78859496,3.46296296 8.65740741,3.46296296 C11.5262199,3.46296296 13.8518519,5.78859496 13.8518519,8.65740741 L11.962963,8.65740741 C11.962963,6.83179948 10.4830153,5.35185185 8.65740741,5.35185185 C6.83179948,5.35185185 5.35185185,6.83179948 5.35185185,8.65740741 C5.35185185,10.4830153 6.83179948,11.962963 8.65740741,11.962963 L8.65740741,13.8518519 Z" id="Path"></path>
                </g>
            </g>
        </g>
        <g id="Group-25" transform="translate(44.000000, 7.000000)">
            <g id="Group-3" transform="translate(0.000000, 0.623000)">
                <mask id="mask-2" fill="white">
                    <use xlink:href="#path-1"></use>
                </mask>
                <g id="Clip-2"></g>
                <path d="M3.7607,8.2578 C5.2407,8.2578 5.9817,7.4578 5.9817,5.7578 C5.9817,4.0178 5.2407,3.3578 3.8007,3.3578 L3.0797,3.3578 L3.0797,8.2578 L3.7607,8.2578 Z M-0.0003,14.7998 L-0.0003,0.7968 L3.8007,0.7968 C7.2217,0.7968 9.0617,2.4168 9.0617,5.6568 C9.0617,9.2788 6.8807,10.7788 3.8807,10.7788 L3.1007,10.7788 L3.1007,14.7998 L-0.0003,14.7998 Z" id="Fill-1" fill="#000000" mask="url(#mask-2)"></path>
            </g>
            <path d="M13.7402,7.3007 C12.8402,7.3007 12.2792,8.2607 12.2792,10.2217 C12.2792,12.2017 12.8602,13.1827 13.7802,13.1827 C14.6802,13.1827 15.2612,12.2017 15.2612,10.2407 C15.2612,8.2607 14.6602,7.3007 13.7402,7.3007 M13.7602,15.6227 C11.3992,15.6227 9.5192,13.8027 9.5192,10.2617 C9.5192,6.6807 11.4202,4.8407 13.7802,4.8407 C16.1202,4.8407 18.0202,6.6807 18.0202,10.2217 C18.0202,13.7817 16.1202,15.6227 13.7602,15.6227" id="Fill-4" fill="#000000"></path>
            <path d="M23.3799,15.583 C20.5999,15.583 18.9589,13.643 18.9589,10.262 C18.9589,6.961 20.6399,4.88 23.5399,4.88 C24.4599,4.88 25.1599,5.061 25.8409,5.32 L25.4009,7.841 C24.9199,7.621 24.3599,7.44 23.7799,7.44 C22.4399,7.44 21.7389,8.602 21.7389,10.222 C21.7389,11.981 22.4399,13.022 23.8199,13.022 C24.3399,13.022 24.8809,12.862 25.4609,12.642 L25.9009,15.062 C25.1999,15.362 24.2799,15.583 23.3799,15.583" id="Fill-6" fill="#000000"></path>
            <g id="Group-10" transform="translate(27.000000, 0.623000)">
                <mask id="mask-4" fill="white">
                    <use xlink:href="#path-3"></use>
                </mask>
                <g id="Clip-9"></g>
                <polygon id="Fill-8" fill="#000000" mask="url(#mask-4)" points="2.9795 9.8389 2.9795 14.7999 0.0795 14.7999 0.0795 0.3769 2.9795 0.3769 2.9795 8.9179 5.3395 4.4379 8.5205 4.4379 5.7005 9.3989 8.6005 14.7999 5.3795 14.7999"></polygon>
            </g>
            <path d="M41.1191,9.541 C41.0591,7.981 40.5991,7.061 39.7191,7.061 C38.8191,7.061 38.3581,8.021 38.2991,9.541 L41.1191,9.541 Z M35.5981,10.281 C35.5981,6.721 37.4191,4.841 39.7191,4.841 C42.1601,4.841 43.8001,6.701 43.8001,10.342 L43.8001,11.281 L38.2991,11.281 C38.3981,12.702 39.1791,13.402 40.4591,13.402 C41.2201,13.402 42.1201,13.162 42.9391,12.782 L43.4601,14.822 C42.4601,15.322 41.2791,15.583 40.1591,15.583 C37.6191,15.583 35.5981,14.242 35.5981,10.281 Z" id="Fill-11" fill="#000000"></path>
            <path d="M45.7578,12.3222 L45.7578,7.4402 L44.6378,7.4402 L44.6378,5.0602 L45.7578,5.0602 L45.7578,2.3402 L48.6388,2.3402 L48.6388,5.0602 L50.8388,5.0602 L50.8388,7.4402 L48.6388,7.4402 L48.6388,11.9022 C48.6388,12.7612 49.0988,13.1222 49.8788,13.1222 C50.2188,13.1222 50.5198,13.0622 50.8388,12.9822 L50.8388,15.3432 C50.3998,15.4822 49.7788,15.5622 49.0588,15.5622 C46.8588,15.5622 45.7578,14.6622 45.7578,12.3222" id="Fill-13" fill="#000000"></path>
            <path d="M60.7793,15.583 C57.1383,15.583 54.8583,13.262 54.8583,8.441 C54.8583,3.8 57.1983,1.26 60.7993,1.26 C61.9993,1.26 63.0003,1.5 63.7803,1.8 L63.3003,4.641 C62.6793,4.38 61.9603,4.141 61.0993,4.141 C59.1783,4.141 58.0393,5.66 58.0393,8.401 C58.0393,11.222 59.1193,12.702 61.1593,12.702 C61.9393,12.702 62.6793,12.502 63.3193,12.222 L63.8203,14.982 C62.9603,15.343 61.8993,15.583 60.7793,15.583" id="Fill-15" fill="#000000"></path>
            <path d="M69.8389,13.2216 L69.8389,10.7616 C69.5589,10.7006 69.2379,10.6816 68.8989,10.6816 C68.2979,10.6816 67.9579,10.8016 67.7179,11.0216 C67.4979,11.2616 67.3779,11.6216 67.3779,12.1416 C67.3779,13.1826 67.8379,13.6026 68.6389,13.6026 C69.0379,13.6026 69.4579,13.4426 69.8389,13.2216 M67.4379,15.5626 C65.8179,15.5626 64.6779,14.5226 64.6779,12.2826 C64.6779,11.2816 64.9569,10.4416 65.4979,9.9216 C66.0779,9.3216 66.9379,9.0216 68.2379,9.0216 C68.7979,9.0216 69.3589,9.1016 69.8389,9.2006 L69.8389,8.6206 C69.8389,7.7416 69.4389,7.2606 68.3589,7.2606 C67.5179,7.2606 66.6179,7.5006 65.8179,7.8406 L65.2769,5.6406 C66.3179,5.2206 67.5379,4.9006 68.8779,4.9006 C71.4989,4.9006 72.6789,6.0206 72.6789,8.4016 L72.6789,13.5816 L72.8999,15.4226 L70.3789,15.4226 L70.0189,14.5226 C69.2589,15.1826 68.5189,15.5626 67.4379,15.5626" id="Fill-17" fill="#000000"></path>
            <path d="M77.7783,15.6025 C76.3783,15.6025 75.0773,15.2425 73.9573,14.6425 L74.5373,12.3015 C75.6373,12.9025 76.7383,13.2615 77.7383,13.2615 C78.4783,13.2615 78.8783,12.9425 78.8783,12.5015 C78.8783,12.0615 78.6383,11.8625 77.2383,11.3015 C75.2983,10.5215 74.3373,9.7815 74.3373,8.0405 C74.3373,6.1215 75.6573,4.8795 77.9783,4.8795 C79.1583,4.8795 80.2383,5.1605 81.2183,5.6405 L80.6383,7.9815 C79.7383,7.5205 78.8183,7.2205 77.9783,7.2205 C77.3583,7.2205 77.0173,7.4805 77.0173,7.9015 C77.0173,8.3005 77.2383,8.5005 78.6183,9.0615 C80.7993,9.9215 81.5583,10.7215 81.5583,12.3625 C81.5583,14.5225 80.0393,15.6025 77.7783,15.6025" id="Fill-19" fill="#000000"></path>
            <path d="M83.5176,12.3222 L83.5176,7.4402 L82.3976,7.4402 L82.3976,5.0602 L83.5176,5.0602 L83.5176,2.3402 L86.3986,2.3402 L86.3986,5.0602 L88.5986,5.0602 L88.5986,7.4402 L86.3986,7.4402 L86.3986,11.9022 C86.3986,12.7612 86.8586,13.1222 87.6386,13.1222 C87.9786,13.1222 88.2796,13.0622 88.5986,12.9822 L88.5986,15.3432 C88.1596,15.4822 87.5386,15.5622 86.8186,15.5622 C84.6186,15.5622 83.5176,14.6622 83.5176,12.3222" id="Fill-21" fill="#000000"></path>
            <path d="M93.5986,15.6025 C92.1986,15.6025 90.8976,15.2425 89.7776,14.6425 L90.3576,12.3015 C91.4576,12.9025 92.5586,13.2615 93.5586,13.2615 C94.2986,13.2615 94.6986,12.9425 94.6986,12.5015 C94.6986,12.0615 94.4586,11.8625 93.0586,11.3015 C91.1186,10.5215 90.1576,9.7815 90.1576,8.0405 C90.1576,6.1215 91.4776,4.8795 93.7986,4.8795 C94.9786,4.8795 96.0586,5.1605 97.0386,5.6405 L96.4586,7.9815 C95.5586,7.5205 94.6386,7.2205 93.7986,7.2205 C93.1786,7.2205 92.8376,7.4805 92.8376,7.9015 C92.8376,8.3005 93.0586,8.5005 94.4386,9.0615 C96.6196,9.9215 97.3786,10.7215 97.3786,12.3625 C97.3786,14.5225 95.8596,15.6025 93.5986,15.6025" id="Fill-23" fill="#000000"></path>
        </g>
    </g>
</svg>